<mxfile host="app.diagrams.net" modified="2023-06-16T07:25:52.614Z" agent="Mozilla/5.0 (Macintosh; Intel Mac OS X 10_15_7) AppleWebKit/537.36 (KHTML, like Gecko) Chrome/113.0.0.0 Safari/537.36" version="21.3.7" etag="M-oczzmGlFkjHITe_V6w" type="github">
  <diagram name="Page-1" id="4YtnG2kRDNjNFjsuQ804">
    <mxGraphModel>
      <root>
        <mxCell id="0" />
        <mxCell id="1" parent="0" />
      </root>
    </mxGraphModel>
  </diagram>
</mxfile>
